<?xml version="1.0" encoding="UTF-8"?>
<svg version="1.1" viewBox="0 0 1698 2048" width="146" height="176" xmlns="http://www.w3.org/2000/svg">
<path transform="translate(771)" d="m0 0h3v2l8-1 5-1h56l35 1 26 2 33 4 45 7 39 8 38 9 30 9 47 17 32 13 26 12 24 12 22 12 19 11 22 14 21 14 20 14 12 9 13 10 14 11 13 11 12 11 14 12 8 8 8 7 11 11v2h2l7 8 7 7 7 8 14 15 9 11 11 13 13 18 15 20 26 39 19 32 10 18 12 23 14 29 14 33 10 27 11 33 11 40 9 36 8 46 4 33 4 43 1 21v58l-2 33-5 49-7 43-6 30-11 43-12 40-14 38-12 28-12 27-13 26-10 18-16 27-11 18-7 10-8 12-13 19-28 36-9 11-12 14-15 16-11 11-7 8-10 10-8 7-7 7-11 9-2 2 1 9 5 21 10 48 15 73 18 87 16 75 7 34 7 29v5l-19 7-31 9-35 9-41 10-54 12-55 11-69 11-81 10-51 5-84 6-38 2-36 1h-88l-38-1-54-3-73-6-67-7-74-10-68-12-57-12-59-14-42-11-43-13-10-4 1-7 6-21 24-117 16-77 10-47 10-49 8-39 5-18-1-6-6-7-8-7-18-18-8-7-8-8-7-8-8-8-9-11-11-12-9-11-13-16-14-19-13-18-21-32-19-32-14-26-13-26-15-34-16-42-12-36-10-36-9-42-6-33-6-46-3-27-1-4v-119l9-62 9-51 9-38 14-47 13-36 13-32 13-28 15-30 12-22 13-23 7-10 10-16 12-17 8-12 16-21 13-16 9-11 8-10 12-13 9-11 14-14 7-8 5-4 14-14 11-9 14-13 10-8 12-10 30-23 18-13 25-16 22-14 21-12 24-13 17-9 28-13 36-15 40-14 36-11 38-9 41-8 47-7 36-4zm-11 125-44 4-37 5-29 5-36 9-29 9-39 15-33 15-23 12-24 14-14 9-15 10-14 10-13 10-16 13-11 9-16 15-8 7-23 23-7 8-9 10-11 13-11 14-14 19-10 15-10 16-11 18-12 22-14 28-8 19-10 26-13 38-10 40-6 33-9 60-1 11 5 4 6-7 15-36 7-16 9-19 6-10 8-16 13-24 8-13 12-20 13-20 13-19 6-8 13-18 9-11 13-16 8-10 12-14 14-15 7-8 6-7 8-7 15-14 8-7 11-9 12-10 11-9 17-13 33-22 22-13 27-14 27-13 29-11 35-11 29-7 31-6 32-4 32-2 25-1 1-1 1-63v-44zm302 128-13 3-17 8-12 9-7 7-7 10-7 14-3 10-1 7v20l4 16 7 13 11 14 13 10 15 8 11 4 13 2 13-1 14-4 16-8 9-7 8-7 9-12 5-10 5-17 1-5v-14l-4-16-8-16-7-11-8-8-12-9-13-6-10-3-7-1zm-441 203-21 3-21 6-18 8-15 8-17 12-10 8-12 11-8 8-7 8-11 13-13 19-6 10-10 18-11 22-7 15v2l552 1 2-2-12-16-11-13-6-7-8-7-14-11-16-9-25-9-16-3h-14l-29 6-15 8-5 3-7-1-11-17-12-16-10-11-7-8-13-12-14-11-18-12-19-10-15-6-19-5-20-3zm696 22-12 4-12 8-6 7-7 14-2 11 3 12 7 11 9 10 12 6 7 2h11l12-5 9-7 7-8 5-10 2-11-3-16-6-10-9-9-12-7-8-2zm-117 175-7 2-14 15-51 51-8 7-20 20-8 7-12 11-86 86-8 7-7 6v2l-4 2-16 16-5 4-1-1v-18l2-32 1-31v-67h-82l-5 2-8 9-7 8-15 15-7 8-14 15-7 8-11 11-7 8-9 9-7 8-15 16-7 8-13 13-7 8-14 15-9 10-12 13-14 15-12 12-7 8-14 15-10 10-7 8-13 14-7 8-7 7-4 2v-143l-1-5-28 1h-14l-14-1-5 3-10 10-7 8-14 15-9 10-11 12-12 12-7 8-11 12-16 17-12 13-3 3v2l-3 1-7 8-11 11-7 8-9 10-10 10-7 8-14 15-16 17-11 12-13 13-7 8-11 11-7 8-10 10-10 13-4 2-5-4-11-14-9-10-9-11-12-15-14-19-22-33-13-22-14-26-13-28-18-45-9-25-9-28-7-28-8-42-5-39-1-11v-37l-2-1-3 11-6 37-2 25v42l4 57 4 37 6 37 9 42 10 35 13 38 12 30 12 27 11 23 12 22 11 20 14 23 13 19 11 16 12 16 11 14 14 17 11 13 7 8 54 54 11 9 10 9 17 13 16 13 12 9 5 2 21 2 53 4 175 12 140 10 18 1h46l194-14 192-13 18-3 10-5 13-10 14-11 17-14 10-9 8-7 11-10 35-35 7-8 7-7 7-8 9-10 8-10 10-13 15-20 12-17 20-32 17-29 15-29 9-19 10-23 10-26 15-47 10-37 8-38 6-35 4-31 2-31 1-9 1-33v-27l-3-31-4-28-2-12-3-3-1 3-2 46-3 27-6 36-6 29-11 39-11 31-16 38-13 28-12 25-10 18h-4l-4-7-5-16-6-20-12-36-13-38-15-43-27-81-16-47-12-36-13-40-11-30-2-3zm115 863-26 3-373 26-39 3-1 5 1 299h16l72-4 76-6 57-6 78-11 63-11 53-11 72-17 9-3 2-2-2-12-17-80-10-47-9-44-12-62-3-18-1-2zm-881 52-1 21-5 44-6 59-8 62-3 20 5 2 57 5 16 1 2-1 3-15 4-31 12-106 5-38 2-16-3-2-49-4-12-1z" fill="#FEFEFE"/>
<path transform="translate(793,996)" d="m0 0 6 1 6 4 6 7 7 15 15 37 16 42 4 11 5 5 8 5 27 11 30 11 34 12 26 8 28 8 9 1 16-38 6-16 7-17 8-9 2-1h13l6 3 4 5 6 14 20 49 9 21 4 4 7 2h49l7-3 6-9 7-16 8-22 13-34 10-24 9-12 9-4 8 1 7 6 7 14 21 52 8 23 4 7 8-1 22-7 36-10 20-6 13-5 8-1 3 1-1 5-7 8-18 18-8 7-15 15-11 9-12 11-11 9-12 10-18 13-19 13-15 10-27 16-26 14-35 18-20 9-33 13-28 10-29 9-42 11-46 9-49 7-29 3-25 2-28 1h-38l-41-2-45-5-56-9-48-11-35-10-38-13-38-15-26-12-30-15-22-12-27-16-19-13-16-11-16-12-14-11-11-9-13-10-9-9 2-3 11-5 20-7 30-13 39-16 35-14 38-14 43-14 46-13 37-8 25-4 44-5 43-1 14 1 10 2 5-1 4-9 14-35 9-22 7-11 7-6zm10 152-4 4-11 28-11 27-4 13 1 4 9 3 24 1h24l7-2 2-2v-7l-9-27-8-20-6-14-5-6zm-164 15-7 10-16 39-7 16-2 9 2 3 11 3h49l5-2 1-4-3-14-11-28-11-27-4-5zm269 59-4 5-6 11-13 31-9 22-1 7 3 3 12 2h27l24-1 2-1v-7l-4-14-11-27-9-22-6-9z" fill="#FEFEFE"/>
<path transform="translate(1212,713)" d="m0 0 2 4v109l-2 4-10 5-21 10-22 12-33 17-16 8-28 15-26 13-22 13-12 7-5 2h-4l1-6 5-5 12-13 31-31 7-8 16-17 9-10 33-36 14-15 11-12 7-8 13-13 7-8 11-12 9-11 8-10z" fill="#FEFEFE"/>
<path transform="translate(1012,1587)" d="m0 0h18l2 4 10 79 11 81 6 38v7l-7 2-30 3h-16l-2-8-9-60-9-66-6-46-3-25 1-7 7-1z" fill="#FEFEFE"/>
</svg>